<svg xmlns="http://www.w3.org/2000/svg" xmlns:xlink="http://www.w3.org/1999/xlink" width="500" zoomAndPan="magnify" viewBox="0 0 375 374.999991" height="500" preserveAspectRatio="xMidYMid meet" version="1.0"><defs><clipPath id="aef4eaea58"><path d="M 3 66 L 372 66 L 372 350.5625 L 3 350.5625 Z M 3 66 " clip-rule="nonzero"/></clipPath></defs><rect x="-37.5" width="450" fill="#ffffff" y="-37.499999" height="449.999989" fill-opacity="1"/><rect x="-37.5" width="450" fill="#000000" y="-37.499999" height="449.999989" fill-opacity="1"/><path fill="#5b6771" d="M 52.035156 144.167969 C 51.699219 144.417969 40.433594 118.789062 39.824219 116.984375 C 32.976562 96.648438 30.890625 76.375 34.171875 55.089844 C 35.683594 45.242188 39.496094 34.199219 48.992188 29.425781 C 59.214844 24.292969 72.824219 29.722656 82.300781 34.257812 C 82.300781 34.257812 115.214844 50.757812 131.058594 82.140625 L 52.035156 144.167969 " fill-opacity="1" fill-rule="nonzero"/><path fill="#231f20" d="M 52.035156 144.167969 L 52.035156 142.722656 L 52.035156 144.140625 L 52.804688 142.949219 C 52.675781 142.878906 52.46875 142.734375 52.035156 142.722656 L 52.035156 144.140625 L 52.804688 142.949219 L 52.109375 144.023438 L 53.109375 143.222656 C 53.070312 143.183594 53.046875 143.113281 52.804688 142.949219 L 52.109375 144.023438 L 53.109375 143.222656 L 52.679688 143.566406 L 53.144531 143.265625 L 53.109375 143.222656 L 52.679688 143.566406 L 53.144531 143.265625 C 53.125 143.242188 53.019531 143.058594 52.890625 142.808594 C 52.390625 141.84375 51.421875 139.777344 50.265625 137.238281 C 48.527344 133.425781 46.347656 128.519531 44.558594 124.417969 C 43.660156 122.371094 42.859375 120.519531 42.261719 119.109375 C 41.960938 118.40625 41.710938 117.8125 41.527344 117.363281 C 41.34375 116.917969 41.214844 116.589844 41.191406 116.519531 C 36.523438 102.640625 34.09375 88.820312 34.09375 74.6875 C 34.09375 68.304688 34.589844 61.855469 35.597656 55.3125 C 36.339844 50.480469 37.644531 45.398438 39.875 41.007812 C 42.113281 36.609375 45.234375 32.933594 49.644531 30.714844 C 52.347656 29.359375 55.328125 28.789062 58.484375 28.789062 C 62.382812 28.785156 66.511719 29.667969 70.503906 30.960938 C 74.492188 32.257812 78.332031 33.957031 81.683594 35.558594 L 82.300781 34.257812 L 81.65625 35.546875 L 81.738281 35.59375 C 82.648438 36.058594 90.902344 40.375 100.796875 48.324219 C 110.695312 56.269531 122.226562 67.847656 129.769531 82.789062 L 131.058594 82.140625 L 130.164062 81.007812 L 51.136719 143.03125 L 52.035156 144.167969 L 52.035156 142.722656 L 52.035156 144.167969 L 52.925781 145.300781 L 131.949219 83.273438 C 132.492188 82.847656 132.65625 82.105469 132.34375 81.492188 C 124.285156 65.53125 111.945312 53.433594 101.632812 45.300781 C 91.320312 37.167969 83.015625 33 82.953125 32.96875 L 82.925781 32.957031 C 79.527344 31.328125 75.570312 29.570312 71.394531 28.21875 C 67.21875 26.863281 62.8125 25.902344 58.484375 25.902344 C 54.988281 25.902344 51.527344 26.539062 48.347656 28.136719 C 43.253906 30.691406 39.722656 34.921875 37.296875 39.699219 C 34.871094 44.484375 33.515625 49.84375 32.742188 54.871094 C 31.710938 61.558594 31.203125 68.152344 31.203125 74.6875 C 31.203125 89.152344 33.691406 103.300781 38.453125 117.441406 C 38.511719 117.617188 38.597656 117.824219 38.714844 118.121094 C 39.160156 119.21875 40.097656 121.410156 41.273438 124.109375 C 43.027344 128.15625 45.3125 133.316406 47.199219 137.476562 C 48.144531 139.554688 48.984375 141.382812 49.617188 142.699219 C 49.933594 143.363281 50.199219 143.894531 50.402344 144.289062 C 50.507812 144.484375 50.597656 144.640625 50.691406 144.792969 C 50.738281 144.871094 50.785156 144.941406 50.875 145.050781 C 50.917969 145.105469 50.976562 145.171875 51.097656 145.277344 C 51.160156 145.324219 51.242188 145.390625 51.378906 145.457031 C 51.519531 145.523438 51.722656 145.605469 52.035156 145.609375 C 52.351562 145.609375 52.667969 145.5 52.925781 145.300781 L 52.035156 144.167969 " fill-opacity="1" fill-rule="nonzero"/><path fill="#242629" d="M 58.5 132.457031 C 58.242188 132.65625 48.160156 109.855469 47.691406 108.449219 C 42.355469 92.605469 40.730469 76.8125 43.285156 60.230469 C 44.46875 52.550781 47.433594 43.953125 54.839844 40.234375 C 62.796875 36.238281 73.402344 40.464844 80.785156 44.007812 C 80.785156 44.007812 107.90625 59.671875 120.246094 84.117188 L 58.5 132.457031 " fill-opacity="1" fill-rule="nonzero"/><path fill="#231f20" d="M 58.5 132.457031 L 58.5 131.011719 L 58.5 132.445312 L 59.054688 131.125 C 58.925781 131.074219 58.746094 131.015625 58.5 131.011719 L 58.5 132.445312 L 59.054688 131.125 L 58.507812 132.417969 L 59.460938 131.390625 C 59.394531 131.328125 59.304688 131.238281 59.054688 131.125 L 58.507812 132.417969 L 59.460938 131.390625 L 58.65625 132.261719 L 59.628906 131.570312 C 59.605469 131.546875 59.585938 131.503906 59.460938 131.390625 L 58.65625 132.261719 L 59.628906 131.570312 L 59.175781 131.890625 L 59.636719 131.589844 L 59.628906 131.570312 L 59.175781 131.890625 L 59.636719 131.589844 L 59.625 131.566406 C 59.582031 131.492188 59.480469 131.304688 59.355469 131.058594 C 58.882812 130.113281 58.011719 128.25 56.980469 125.992188 C 55.4375 122.597656 53.523438 118.300781 51.957031 114.734375 C 51.175781 112.957031 50.480469 111.359375 49.964844 110.148438 C 49.703125 109.546875 49.488281 109.042969 49.332031 108.664062 C 49.253906 108.472656 49.1875 108.3125 49.140625 108.199219 C 49.09375 108.082031 49.0625 107.996094 49.0625 107.988281 C 45.429688 97.203125 43.542969 86.476562 43.542969 75.5 C 43.542969 70.542969 43.929688 65.535156 44.714844 60.445312 C 45.285156 56.710938 46.300781 52.777344 48.019531 49.402344 C 49.738281 46.019531 52.125 43.214844 55.488281 41.523438 C 57.539062 40.492188 59.8125 40.054688 62.230469 40.054688 C 65.214844 40.054688 68.40625 40.734375 71.492188 41.738281 C 74.578125 42.738281 77.5625 44.058594 80.160156 45.308594 L 80.785156 44.007812 L 80.0625 45.253906 L 80.132812 45.296875 C 80.882812 45.738281 87.675781 49.792969 95.734375 56.652344 C 103.796875 63.515625 113.113281 73.1875 118.957031 84.765625 L 120.246094 84.117188 L 119.355469 82.980469 L 57.605469 131.320312 L 58.5 132.457031 L 58.5 131.011719 L 58.5 132.457031 L 59.390625 133.59375 L 121.136719 85.25 C 121.679688 84.824219 121.847656 84.078125 121.535156 83.464844 C 115.222656 70.976562 105.226562 60.839844 96.816406 53.789062 C 88.402344 46.742188 81.5625 42.785156 81.507812 42.753906 L 81.410156 42.703125 C 78.75 41.429688 75.660156 40.050781 72.382812 38.988281 C 69.109375 37.929688 65.652344 37.167969 62.230469 37.167969 C 59.46875 37.167969 56.722656 37.671875 54.191406 38.945312 C 50.148438 40.972656 47.347656 44.332031 45.441406 48.09375 C 43.527344 51.863281 42.464844 56.070312 41.855469 60.011719 C 41.050781 65.234375 40.65625 70.394531 40.65625 75.5 C 40.65625 86.808594 42.601562 97.859375 46.320312 108.910156 C 46.378906 109.070312 46.445312 109.234375 46.546875 109.496094 C 46.929688 110.429688 47.757812 112.351562 48.800781 114.734375 C 50.363281 118.304688 52.398438 122.882812 54.074219 126.574219 C 54.914062 128.421875 55.660156 130.046875 56.222656 131.21875 C 56.503906 131.804688 56.734375 132.28125 56.914062 132.628906 C 57.007812 132.800781 57.082031 132.945312 57.164062 133.078125 C 57.203125 133.148438 57.246094 133.210938 57.320312 133.3125 C 57.367188 133.363281 57.410156 133.425781 57.523438 133.527344 C 57.582031 133.582031 57.660156 133.640625 57.792969 133.71875 C 57.929688 133.792969 58.140625 133.898438 58.5 133.902344 C 58.816406 133.902344 59.136719 133.792969 59.390625 133.59375 L 58.5 132.457031 " fill-opacity="1" fill-rule="nonzero"/><path fill="#5b6771" d="M 328.367188 144.167969 C 328.695312 144.417969 339.964844 118.789062 340.570312 116.984375 C 347.417969 96.648438 349.503906 76.375 346.230469 55.089844 C 344.710938 45.242188 340.902344 34.199219 331.398438 29.425781 C 321.179688 24.292969 307.566406 29.722656 298.089844 34.257812 C 298.089844 34.257812 265.175781 50.757812 249.34375 82.140625 L 328.367188 144.167969 " fill-opacity="1" fill-rule="nonzero"/><path fill="#231f20" d="M 328.367188 144.167969 L 328.367188 145.609375 C 328.8125 145.597656 329.03125 145.453125 329.167969 145.371094 C 329.425781 145.195312 329.472656 145.101562 329.542969 145.027344 C 329.65625 144.886719 329.703125 144.796875 329.769531 144.6875 C 329.890625 144.484375 330.023438 144.234375 330.183594 143.914062 C 330.78125 142.738281 331.761719 140.628906 332.929688 138.066406 C 334.675781 134.226562 336.8125 129.402344 338.570312 125.378906 C 339.449219 123.371094 340.230469 121.558594 340.820312 120.175781 C 341.113281 119.484375 341.359375 118.898438 341.550781 118.4375 C 341.738281 117.976562 341.863281 117.671875 341.941406 117.441406 C 346.703125 103.300781 349.191406 89.152344 349.191406 74.683594 C 349.191406 68.152344 348.6875 61.558594 347.65625 54.871094 C 346.882812 49.84375 345.523438 44.484375 343.097656 39.699219 C 340.671875 34.921875 337.140625 30.691406 332.042969 28.136719 C 328.863281 26.539062 325.402344 25.902344 321.90625 25.902344 C 317.578125 25.902344 313.175781 26.863281 309 28.21875 C 304.824219 29.570312 300.871094 31.328125 297.464844 32.957031 L 297.445312 32.96875 C 297.382812 33 289.078125 37.167969 278.761719 45.300781 C 268.445312 53.433594 256.109375 65.53125 248.050781 81.492188 C 247.738281 82.105469 247.90625 82.847656 248.445312 83.273438 L 327.472656 145.300781 C 327.722656 145.5 328.042969 145.609375 328.367188 145.609375 L 328.367188 144.167969 L 329.257812 143.03125 L 250.234375 81.007812 L 249.34375 82.140625 L 250.628906 82.789062 C 258.410156 67.367188 270.449219 55.527344 280.550781 47.566406 C 285.601562 43.585938 290.164062 40.570312 293.457031 38.558594 C 295.101562 37.550781 296.433594 36.796875 297.347656 36.296875 C 297.800781 36.042969 298.15625 35.855469 298.390625 35.730469 C 298.507812 35.667969 298.597656 35.625 298.660156 35.59375 L 298.742188 35.546875 L 298.089844 34.257812 L 298.71875 35.558594 C 302.0625 33.957031 305.902344 32.257812 309.890625 30.960938 C 313.878906 29.667969 318.011719 28.785156 321.90625 28.789062 C 325.058594 28.789062 328.046875 29.359375 330.746094 30.714844 C 335.160156 32.933594 338.28125 36.609375 340.519531 41.007812 C 342.75 45.398438 344.058594 50.480469 344.800781 55.3125 C 345.808594 61.855469 346.300781 68.304688 346.300781 74.683594 C 346.300781 88.820312 343.875 102.636719 339.199219 116.519531 C 339.1875 116.566406 339.105469 116.769531 338.996094 117.042969 C 338.582031 118.078125 337.640625 120.277344 336.472656 122.960938 C 334.71875 126.996094 332.4375 132.148438 330.5625 136.285156 C 329.625 138.355469 328.789062 140.171875 328.171875 141.457031 C 327.863281 142.097656 327.613281 142.609375 327.4375 142.9375 C 327.351562 143.097656 327.285156 143.21875 327.257812 143.257812 L 327.253906 143.265625 L 327.863281 143.664062 L 327.316406 143.1875 L 327.253906 143.265625 L 327.863281 143.664062 L 327.316406 143.1875 L 328.292969 144.042969 L 327.507812 143.003906 C 327.394531 143.097656 327.351562 143.148438 327.316406 143.1875 L 328.292969 144.042969 L 327.507812 143.003906 L 328.351562 144.125 L 327.78125 142.847656 C 327.648438 142.90625 327.570312 142.964844 327.507812 143.003906 L 328.351562 144.125 L 327.78125 142.847656 L 328.367188 144.148438 L 328.367188 142.722656 C 328.097656 142.722656 327.910156 142.792969 327.78125 142.847656 L 328.367188 144.148438 L 328.367188 142.722656 L 328.367188 144.167969 L 329.257812 143.03125 L 328.367188 144.167969 " fill-opacity="1" fill-rule="nonzero"/><path fill="#242629" d="M 321.898438 132.457031 C 322.152344 132.65625 332.230469 109.855469 332.703125 108.449219 C 338.039062 92.605469 339.664062 76.8125 337.105469 60.230469 C 335.921875 52.550781 332.957031 43.953125 325.5625 40.234375 C 317.601562 36.238281 306.992188 40.464844 299.609375 44.007812 C 299.609375 44.007812 272.496094 59.671875 260.148438 84.117188 L 321.898438 132.457031 " fill-opacity="1" fill-rule="nonzero"/><path fill="#231f20" d="M 321.898438 132.457031 L 321.898438 133.902344 C 322.15625 133.902344 322.339844 133.839844 322.472656 133.785156 C 322.726562 133.671875 322.820312 133.574219 322.898438 133.503906 C 323.039062 133.371094 323.082031 133.304688 323.125 133.242188 C 323.203125 133.128906 323.25 133.046875 323.308594 132.949219 C 323.511719 132.589844 323.792969 132.019531 324.167969 131.226562 C 325.476562 128.484375 327.835938 123.234375 329.929688 118.507812 C 330.976562 116.148438 331.949219 113.917969 332.691406 112.207031 C 333.0625 111.347656 333.371094 110.621094 333.605469 110.066406 C 333.722656 109.789062 333.820312 109.554688 333.894531 109.367188 C 333.972656 109.175781 334.027344 109.042969 334.074219 108.910156 C 337.789062 97.863281 339.738281 86.808594 339.734375 75.503906 C 339.734375 70.394531 339.339844 65.234375 338.535156 60.011719 C 337.925781 56.070312 336.863281 51.867188 334.953125 48.09375 C 333.046875 44.332031 330.25 40.972656 326.207031 38.945312 C 323.675781 37.671875 320.929688 37.167969 318.167969 37.167969 C 314.746094 37.167969 311.285156 37.929688 308.011719 38.988281 C 304.734375 40.050781 301.644531 41.429688 298.984375 42.703125 L 298.886719 42.753906 C 298.835938 42.785156 291.992188 46.742188 283.582031 53.789062 C 275.167969 60.839844 265.171875 70.976562 258.859375 83.464844 C 258.546875 84.078125 258.714844 84.824219 259.257812 85.25 L 321.007812 133.597656 C 321.257812 133.792969 321.578125 133.902344 321.898438 133.902344 L 321.898438 132.457031 L 322.792969 131.320312 L 261.039062 82.980469 L 260.148438 84.117188 L 261.441406 84.765625 C 267.472656 72.8125 277.203125 62.894531 285.4375 56 C 289.554688 52.550781 293.289062 49.855469 295.988281 48.03125 C 297.339844 47.117188 298.433594 46.417969 299.183594 45.949219 C 299.558594 45.71875 299.847656 45.542969 300.042969 45.425781 C 300.140625 45.367188 300.214844 45.324219 300.261719 45.296875 L 300.332031 45.253906 L 299.609375 44.007812 L 300.230469 45.308594 C 302.832031 44.058594 305.816406 42.738281 308.902344 41.738281 C 311.992188 40.734375 315.179688 40.054688 318.167969 40.054688 C 320.585938 40.054688 322.859375 40.492188 324.910156 41.523438 C 328.269531 43.214844 330.65625 46.019531 332.375 49.402344 C 334.089844 52.777344 335.101562 56.710938 335.679688 60.445312 C 336.460938 65.535156 336.84375 70.542969 336.84375 75.503906 C 336.84375 86.476562 334.964844 97.203125 331.332031 107.988281 C 331.328125 108 331.265625 108.175781 331.171875 108.402344 C 330.808594 109.28125 329.980469 111.210938 328.945312 113.578125 C 327.386719 117.132812 325.355469 121.707031 323.6875 125.382812 C 322.851562 127.21875 322.109375 128.832031 321.5625 129.980469 C 321.289062 130.550781 321.066406 131.003906 320.917969 131.300781 C 320.84375 131.441406 320.78125 131.550781 320.761719 131.585938 L 320.753906 131.59375 L 321.386719 131.988281 L 320.816406 131.515625 L 320.753906 131.59375 L 321.386719 131.988281 L 320.816406 131.515625 L 321.828125 132.347656 L 320.992188 131.335938 C 320.882812 131.429688 320.84375 131.480469 320.816406 131.515625 L 321.828125 132.347656 L 320.992188 131.335938 L 321.886719 132.421875 L 321.253906 131.167969 C 321.125 131.230469 321.046875 131.292969 320.992188 131.335938 L 321.886719 132.421875 L 321.253906 131.167969 L 321.898438 132.445312 L 321.898438 131.011719 C 321.585938 131.015625 321.386719 131.101562 321.253906 131.167969 L 321.898438 132.445312 L 321.898438 131.011719 L 321.898438 132.457031 L 322.792969 131.320312 L 321.898438 132.457031 " fill-opacity="1" fill-rule="nonzero"/><path fill="#a4a8a6" d="M 319.71875 133.394531 C 286.167969 97.386719 242.460938 68.164062 191.339844 67.824219 C 132.878906 67.429688 89.527344 92.816406 55.820312 133.398438 C 55.820312 133.398438 -58.066406 255.667969 55.820312 318.5 C 55.820312 318.5 104.925781 347.90625 185.4375 349.066406 C 186.222656 349.066406 186.988281 349.046875 187.769531 349.042969 C 188.550781 349.046875 189.3125 349.066406 190.101562 349.015625 C 270.613281 347.90625 319.722656 318.5 319.722656 318.5 C 433.378906 255.789062 320.179688 133.890625 319.71875 133.394531 " fill-opacity="1" fill-rule="nonzero"/><g clip-path="url(#aef4eaea58)"><path fill="#231f20" d="M 319.71875 133.394531 L 320.777344 132.410156 C 303.921875 114.320312 284.496094 97.914062 262.8125 85.96875 C 241.136719 74.027344 217.183594 66.550781 191.347656 66.378906 C 190.90625 66.375 190.460938 66.371094 190.015625 66.371094 C 160.910156 66.371094 135.476562 72.75 113.132812 84.21875 C 90.785156 95.683594 71.53125 112.21875 54.710938 132.476562 L 55.820312 133.398438 L 54.761719 132.414062 C 54.71875 132.460938 42.011719 146.101562 29.28125 166.667969 C 16.5625 187.230469 3.773438 214.714844 3.757812 242.585938 C 3.753906 256.515625 6.984375 270.542969 15.042969 283.726562 C 23.101562 296.902344 35.964844 309.195312 55.121094 319.761719 L 55.820312 318.5 L 55.078125 319.734375 C 55.222656 319.816406 104.550781 349.34375 185.414062 350.507812 L 185.4375 350.507812 C 186.25 350.507812 187.015625 350.492188 187.777344 350.488281 L 187.765625 350.488281 C 188.132812 350.488281 188.503906 350.496094 188.894531 350.496094 C 189.3125 350.496094 189.742188 350.488281 190.191406 350.457031 L 190.101562 349.015625 L 190.125 350.460938 C 270.984375 349.34375 320.324219 319.816406 320.464844 319.734375 L 319.722656 318.5 L 320.421875 319.761719 C 339.578125 309.195312 352.4375 296.902344 360.5 283.722656 C 368.558594 270.542969 371.785156 256.515625 371.78125 242.582031 C 371.769531 214.796875 359.054688 187.394531 346.375 166.847656 C 333.679688 146.304688 320.96875 132.621094 320.777344 132.410156 L 318.660156 134.378906 C 318.773438 134.496094 331.375 148.066406 343.914062 168.367188 C 356.464844 188.664062 368.90625 215.6875 368.890625 242.582031 C 368.890625 256.074219 365.789062 269.53125 358.035156 282.21875 C 350.273438 294.90625 337.832031 306.855469 319.023438 317.234375 L 318.980469 317.261719 L 318.953125 317.277344 C 317.585938 318.085938 268.988281 346.492188 190.085938 347.574219 L 190.015625 347.578125 C 189.648438 347.601562 189.273438 347.605469 188.894531 347.605469 C 188.535156 347.605469 188.164062 347.601562 187.773438 347.601562 L 187.761719 347.601562 C 186.957031 347.601562 186.195312 347.621094 185.4375 347.621094 L 185.4375 349.066406 L 185.457031 347.621094 C 145.371094 347.046875 113.117188 339.4375 90.898438 331.980469 C 79.785156 328.25 71.183594 324.558594 65.371094 321.808594 C 62.464844 320.429688 60.25 319.289062 58.773438 318.496094 C 58.03125 318.097656 57.480469 317.785156 57.105469 317.574219 C 56.921875 317.46875 56.78125 317.390625 56.691406 317.335938 L 56.59375 317.277344 L 56.5625 317.261719 L 56.519531 317.234375 C 37.710938 306.855469 25.269531 294.90625 17.507812 282.21875 C 9.753906 269.53125 6.652344 256.074219 6.648438 242.585938 C 6.632812 215.609375 19.152344 188.5 31.738281 168.183594 C 38.03125 158.023438 44.324219 149.5625 49.042969 143.644531 C 51.402344 140.6875 53.367188 138.367188 54.734375 136.789062 C 55.425781 136 55.960938 135.394531 56.328125 134.988281 C 56.507812 134.785156 56.648438 134.632812 56.742188 134.53125 C 56.835938 134.429688 56.878906 134.382812 56.878906 134.382812 L 56.933594 134.320312 C 73.5625 114.300781 92.511719 98.042969 114.453125 86.789062 C 136.394531 75.53125 161.332031 69.261719 190.015625 69.257812 C 190.453125 69.257812 190.890625 69.261719 191.328125 69.261719 C 216.613281 69.433594 240.074219 76.742188 261.417969 88.5 C 282.757812 100.25 301.96875 116.460938 318.664062 134.378906 L 318.660156 134.378906 L 319.71875 133.394531 " fill-opacity="1" fill-rule="nonzero"/></g><path fill="#242629" d="M 55.507812 279.101562 C 68.164062 266.253906 85.972656 262.265625 103.410156 261.054688 C 122.910156 259.695312 151.347656 260.941406 163.222656 241.816406 C 171.386719 228.660156 167.925781 212.421875 160.488281 199.730469 C 152.480469 186.074219 140.050781 173.4375 125.035156 167.648438 C 108.945312 161.441406 94.722656 165.441406 79.925781 173.222656 C 62.53125 182.378906 46.320312 194.34375 32.707031 208.539062 C 20.894531 220.84375 8.957031 235.785156 5.867188 253.042969 C 8.375 273.074219 18.523438 292.726562 41.332031 309.335938 C 43.839844 298.304688 47.484375 287.230469 55.507812 279.101562 " fill-opacity="1" fill-rule="nonzero"/><path fill="#231f20" d="M 55.507812 279.101562 L 56.539062 280.117188 C 62.679688 273.882812 70.078125 269.785156 78.125 267.082031 C 86.175781 264.382812 94.863281 263.09375 103.507812 262.492188 C 113.1875 261.816406 125.242188 261.796875 136.464844 259.511719 C 142.082031 258.363281 147.5 256.648438 152.316406 253.957031 C 157.132812 251.265625 161.34375 247.585938 164.449219 242.574219 C 167.914062 237 169.375 230.875 169.371094 224.753906 C 169.367188 215.75 166.257812 206.726562 161.734375 199 C 153.589844 185.121094 140.980469 172.261719 125.554688 166.300781 C 119.917969 164.125 114.46875 163.160156 109.148438 163.160156 C 98.84375 163.164062 89.105469 166.765625 79.253906 171.949219 C 61.726562 181.171875 45.390625 193.222656 31.664062 207.539062 C 25.726562 213.726562 19.730469 220.601562 14.808594 228.144531 C 9.886719 235.6875 6.035156 243.910156 4.445312 252.785156 C 4.417969 252.933594 4.414062 253.070312 4.433594 253.21875 C 5.707031 263.417969 8.9375 273.539062 14.746094 283.214844 C 20.558594 292.886719 28.941406 302.101562 40.480469 310.503906 C 40.875 310.789062 41.382812 310.855469 41.839844 310.6875 C 42.300781 310.515625 42.632812 310.128906 42.742188 309.652344 C 43.984375 304.183594 45.5 298.742188 47.675781 293.703125 C 49.855469 288.660156 52.679688 284.023438 56.535156 280.117188 L 55.507812 279.101562 L 54.476562 278.089844 C 50.3125 282.3125 47.304688 287.273438 45.023438 292.558594 C 42.742188 297.84375 41.183594 303.453125 39.925781 309.019531 L 41.332031 309.335938 L 42.183594 308.167969 C 30.917969 299.960938 22.816406 291.042969 17.226562 281.730469 C 11.632812 272.417969 8.535156 262.699219 7.300781 252.859375 L 5.867188 253.042969 L 7.289062 253.292969 C 8.785156 244.914062 12.453125 237.042969 17.226562 229.722656 C 22 222.402344 27.878906 215.65625 33.75 209.539062 C 47.246094 195.460938 63.335938 183.585938 80.597656 174.5 C 90.257812 169.417969 99.535156 166.046875 109.148438 166.046875 C 114.117188 166.050781 119.191406 166.941406 124.515625 168.992188 C 139.117188 174.613281 151.371094 187.015625 159.242188 200.460938 C 163.566406 207.835938 166.492188 216.425781 166.484375 224.753906 C 166.484375 230.425781 165.148438 235.972656 161.996094 241.050781 C 159.167969 245.605469 155.371094 248.941406 150.90625 251.441406 C 144.210938 255.183594 135.996094 257.003906 127.609375 257.976562 C 119.21875 258.957031 110.679688 259.101562 103.308594 259.613281 C 94.511719 260.226562 85.582031 261.539062 77.207031 264.34375 C 68.832031 267.152344 60.992188 271.476562 54.476562 278.089844 L 55.507812 279.101562 " fill-opacity="1" fill-rule="nonzero"/><path fill="#242629" d="M 320.699219 279.101562 C 308.03125 266.253906 290.234375 262.265625 272.800781 261.054688 C 253.285156 259.695312 224.855469 260.941406 212.980469 241.816406 C 204.820312 228.660156 208.277344 212.421875 215.714844 199.730469 C 223.722656 186.074219 236.148438 173.4375 251.171875 167.648438 C 267.261719 161.441406 281.480469 165.441406 296.277344 173.222656 C 313.671875 182.378906 329.878906 194.34375 343.503906 208.539062 C 355.304688 220.84375 367.246094 235.785156 370.339844 253.042969 C 367.828125 273.074219 357.679688 292.726562 334.875 309.335938 C 332.367188 298.304688 328.714844 287.230469 320.699219 279.101562 " fill-opacity="1" fill-rule="nonzero"/><path fill="#231f20" d="M 320.699219 279.101562 L 321.726562 278.089844 C 315.207031 271.476562 307.375 267.152344 299 264.34375 C 290.617188 261.539062 281.691406 260.226562 272.902344 259.613281 C 263.074219 258.933594 251.152344 258.894531 240.316406 256.683594 C 234.898438 255.578125 229.765625 253.933594 225.296875 251.441406 C 220.835938 248.941406 217.039062 245.605469 214.207031 241.050781 C 211.058594 235.972656 209.722656 230.425781 209.71875 224.75 C 209.714844 216.421875 212.636719 207.832031 216.960938 200.460938 C 224.835938 187.015625 237.082031 174.613281 251.691406 168.992188 C 257.015625 166.941406 262.085938 166.050781 267.054688 166.046875 C 276.664062 166.046875 285.945312 169.417969 295.605469 174.5 C 312.867188 183.585938 328.953125 195.460938 342.457031 209.539062 C 348.328125 215.65625 354.203125 222.402344 358.980469 229.722656 C 363.753906 237.042969 367.417969 244.917969 368.917969 253.292969 L 370.339844 253.042969 L 368.910156 252.859375 C 367.671875 262.699219 364.574219 272.414062 358.980469 281.730469 C 353.382812 291.042969 345.289062 299.960938 334.019531 308.167969 L 334.875 309.335938 L 336.28125 309.019531 C 335.015625 303.453125 333.457031 297.84375 331.179688 292.558594 C 328.898438 287.273438 325.890625 282.3125 321.726562 278.089844 L 320.699219 279.101562 L 319.667969 280.117188 C 323.519531 284.023438 326.347656 288.660156 328.527344 293.703125 C 330.699219 298.742188 332.222656 304.183594 333.460938 309.652344 C 333.570312 310.128906 333.90625 310.515625 334.367188 310.6875 C 334.820312 310.855469 335.328125 310.789062 335.722656 310.503906 C 347.265625 302.101562 355.648438 292.886719 361.457031 283.214844 C 367.269531 273.542969 370.496094 263.417969 371.773438 253.21875 C 371.792969 253.070312 371.789062 252.933594 371.761719 252.785156 C 370.171875 243.910156 366.320312 235.6875 361.398438 228.144531 C 356.476562 220.601562 350.480469 213.726562 344.542969 207.539062 C 330.808594 193.222656 314.476562 181.171875 296.949219 171.949219 C 287.097656 166.765625 277.359375 163.164062 267.054688 163.160156 C 261.738281 163.160156 256.285156 164.125 250.648438 166.300781 C 235.21875 172.261719 222.609375 185.121094 214.46875 199 C 209.945312 206.722656 206.832031 215.746094 206.828125 224.75 C 206.824219 230.875 208.289062 237 211.75 242.574219 C 214.863281 247.585938 219.074219 251.265625 223.886719 253.957031 C 231.113281 257.992188 239.6875 259.84375 248.261719 260.84375 C 256.839844 261.84375 265.441406 261.988281 272.699219 262.492188 C 281.34375 263.09375 290.03125 264.382812 298.074219 267.082031 C 306.128906 269.785156 313.523438 273.882812 319.667969 280.117188 L 320.699219 279.101562 " fill-opacity="1" fill-rule="nonzero"/><path fill="#5b6771" d="M 128.585938 132.308594 C 160.957031 148.917969 181.558594 179.625 190 214.148438 C 192.511719 192.839844 198.820312 171.523438 212.785156 154.90625 C 226.386719 138.714844 245.488281 128.601562 266.238281 124.949219 C 280.796875 122.394531 295.601562 122.203125 310.316406 123.808594 C 278.152344 92.347656 237.824219 68.136719 191.339844 67.824219 C 138.386719 67.46875 97.863281 88.3125 65.640625 122.390625 C 86.894531 119.378906 108.710938 122.109375 128.585938 132.308594 " fill-opacity="1" fill-rule="nonzero"/><path fill="#231f20" d="M 128.585938 132.308594 L 127.925781 133.597656 C 143.898438 141.792969 156.964844 153.460938 167.097656 167.359375 C 177.226562 181.261719 184.414062 197.394531 188.597656 214.488281 C 188.761719 215.164062 189.390625 215.632812 190.085938 215.585938 C 190.785156 215.546875 191.351562 215.007812 191.433594 214.316406 C 193.925781 193.171875 200.1875 172.140625 213.890625 155.835938 C 227.25 139.929688 246.039062 129.976562 266.488281 126.375 C 274.851562 124.902344 283.304688 124.21875 291.777344 124.21875 C 297.898438 124.21875 304.03125 124.578125 310.160156 125.246094 C 310.769531 125.3125 311.359375 124.984375 311.617188 124.429688 C 311.882812 123.875 311.765625 123.207031 311.324219 122.78125 C 295.160156 106.96875 276.925781 92.957031 256.847656 82.847656 C 236.769531 72.738281 214.839844 66.535156 191.347656 66.378906 C 190.90625 66.375 190.460938 66.371094 190.015625 66.371094 C 163.671875 66.371094 140.34375 71.609375 119.59375 81.117188 C 98.839844 90.621094 80.667969 104.386719 64.589844 121.398438 C 64.164062 121.84375 64.074219 122.503906 64.355469 123.050781 C 64.640625 123.597656 65.234375 123.90625 65.84375 123.816406 C 71.144531 123.066406 76.476562 122.679688 81.804688 122.679688 C 97.578125 122.679688 113.285156 126.082031 127.925781 133.597656 L 128.585938 132.308594 L 129.246094 131.023438 C 114.175781 123.289062 97.992188 119.789062 81.804688 119.792969 C 76.339844 119.792969 70.867188 120.191406 65.4375 120.960938 L 65.640625 122.390625 L 66.691406 123.378906 C 82.5625 106.59375 100.429688 93.070312 120.796875 83.738281 C 141.167969 74.410156 164.050781 69.257812 190.015625 69.257812 C 190.453125 69.257812 190.890625 69.261719 191.328125 69.261719 C 214.320312 69.421875 235.796875 75.484375 255.546875 85.425781 C 275.296875 95.367188 293.304688 109.195312 309.304688 124.84375 L 310.316406 123.808594 L 310.472656 122.378906 C 304.25 121.695312 298.011719 121.332031 291.777344 121.332031 C 283.148438 121.332031 274.527344 122.027344 265.984375 123.527344 C 244.945312 127.230469 225.519531 137.5 211.679688 153.980469 C 197.460938 170.90625 191.097656 192.511719 188.5625 213.976562 L 190 214.148438 L 191.40625 213.804688 C 187.140625 196.375 179.808594 179.894531 169.433594 165.664062 C 159.0625 151.425781 145.644531 139.4375 129.246094 131.023438 L 128.585938 132.308594 " fill-opacity="1" fill-rule="nonzero"/><path fill="#ffffff" d="M 137.535156 208.445312 C 137.535156 217.988281 129.792969 225.71875 120.246094 225.71875 C 110.695312 225.71875 102.953125 217.988281 102.953125 208.445312 C 102.953125 198.902344 110.695312 191.171875 120.246094 191.171875 C 129.792969 191.171875 137.535156 198.902344 137.535156 208.445312 " fill-opacity="1" fill-rule="nonzero"/><path fill="#231f20" d="M 137.535156 208.445312 L 136.089844 208.445312 C 136.089844 212.820312 134.316406 216.769531 131.449219 219.640625 C 128.578125 222.507812 124.625 224.273438 120.246094 224.273438 C 115.863281 224.273438 111.914062 222.507812 109.039062 219.640625 C 106.171875 216.769531 104.398438 212.820312 104.398438 208.445312 C 104.398438 204.066406 106.171875 200.117188 109.039062 197.25 C 111.914062 194.378906 115.863281 192.613281 120.246094 192.613281 C 124.625 192.613281 128.578125 194.378906 131.449219 197.25 C 134.316406 200.117188 136.089844 204.066406 136.089844 208.445312 L 138.980469 208.445312 C 138.980469 198.101562 130.59375 189.726562 120.246094 189.722656 C 109.894531 189.726562 101.507812 198.101562 101.507812 208.445312 C 101.507812 218.785156 109.894531 227.160156 120.246094 227.160156 C 130.59375 227.160156 138.980469 218.785156 138.980469 208.445312 L 137.535156 208.445312 " fill-opacity="1" fill-rule="nonzero"/><path fill="#231f20" d="M 135.207031 212.425781 C 135.207031 219.507812 129.460938 225.253906 122.367188 225.253906 C 115.277344 225.253906 109.527344 219.507812 109.527344 212.425781 C 109.527344 205.34375 115.277344 199.59375 122.367188 199.59375 C 129.460938 199.59375 135.207031 205.34375 135.207031 212.425781 " fill-opacity="1" fill-rule="nonzero"/><path fill="#231f20" d="M 135.207031 212.425781 L 133.761719 212.425781 C 133.761719 215.570312 132.488281 218.40625 130.421875 220.472656 C 128.355469 222.535156 125.519531 223.808594 122.367188 223.808594 C 119.21875 223.808594 116.375 222.535156 114.308594 220.472656 C 112.246094 218.40625 110.976562 215.570312 110.972656 212.425781 C 110.972656 209.277344 112.246094 206.441406 114.308594 204.371094 C 116.375 202.308594 119.21875 201.039062 122.367188 201.039062 C 125.519531 201.039062 128.355469 202.308594 130.421875 204.371094 C 132.488281 206.441406 133.761719 209.277344 133.761719 212.425781 L 136.652344 212.425781 C 136.652344 204.546875 130.257812 198.152344 122.367188 198.152344 C 114.476562 198.152344 108.085938 204.546875 108.082031 212.425781 C 108.085938 220.304688 114.480469 226.691406 122.367188 226.695312 C 130.257812 226.691406 136.652344 220.304688 136.652344 212.425781 L 135.207031 212.425781 " fill-opacity="1" fill-rule="nonzero"/><path fill="#ffffff" d="M 120.507812 209.425781 C 120.507812 211.632812 118.71875 213.425781 116.507812 213.425781 C 114.292969 213.425781 112.5 211.632812 112.5 209.425781 C 112.5 207.210938 114.292969 205.417969 116.507812 205.417969 C 118.71875 205.417969 120.507812 207.210938 120.507812 209.425781 " fill-opacity="1" fill-rule="nonzero"/><path fill="#ffffff" d="M 272.585938 208.445312 C 272.585938 217.988281 264.84375 225.71875 255.296875 225.71875 C 245.746094 225.71875 238.003906 217.988281 238.003906 208.445312 C 238.003906 198.902344 245.746094 191.171875 255.296875 191.171875 C 264.84375 191.171875 272.585938 198.902344 272.585938 208.445312 " fill-opacity="1" fill-rule="nonzero"/><path fill="#231f20" d="M 272.585938 208.445312 L 271.140625 208.445312 C 271.140625 212.820312 269.367188 216.769531 266.496094 219.640625 C 263.625 222.507812 259.675781 224.273438 255.296875 224.273438 C 250.914062 224.273438 246.964844 222.507812 244.089844 219.640625 C 241.222656 216.769531 239.449219 212.820312 239.449219 208.445312 C 239.449219 204.066406 241.222656 200.117188 244.089844 197.25 C 246.964844 194.378906 250.914062 192.613281 255.296875 192.613281 C 259.675781 192.613281 263.625 194.378906 266.496094 197.25 C 269.367188 200.117188 271.140625 204.066406 271.140625 208.445312 L 274.03125 208.445312 C 274.03125 198.101562 265.640625 189.726562 255.296875 189.722656 C 244.949219 189.726562 236.558594 198.101562 236.558594 208.445312 C 236.558594 218.785156 244.949219 227.160156 255.296875 227.160156 C 265.640625 227.160156 274.03125 218.785156 274.03125 208.445312 L 272.585938 208.445312 " fill-opacity="1" fill-rule="nonzero"/><path fill="#231f20" d="M 270.261719 212.425781 C 270.261719 219.507812 264.507812 225.253906 257.417969 225.253906 C 250.328125 225.253906 244.578125 219.507812 244.578125 212.425781 C 244.578125 205.34375 250.328125 199.59375 257.417969 199.59375 C 264.507812 199.59375 270.261719 205.34375 270.261719 212.425781 " fill-opacity="1" fill-rule="nonzero"/><path fill="#231f20" d="M 270.261719 212.425781 L 268.816406 212.425781 C 268.816406 215.570312 267.539062 218.40625 265.472656 220.472656 C 263.410156 222.535156 260.566406 223.808594 257.417969 223.808594 C 254.269531 223.808594 251.425781 222.535156 249.363281 220.472656 C 247.300781 218.410156 246.027344 215.570312 246.023438 212.425781 C 246.027344 209.277344 247.300781 206.441406 249.363281 204.371094 C 251.429688 202.308594 254.269531 201.039062 257.417969 201.039062 C 260.566406 201.039062 263.410156 202.308594 265.472656 204.371094 C 267.539062 206.441406 268.816406 209.277344 268.816406 212.425781 L 271.707031 212.425781 C 271.703125 204.546875 265.308594 198.152344 257.417969 198.148438 C 249.53125 198.152344 243.136719 204.546875 243.132812 212.425781 C 243.136719 220.304688 249.53125 226.691406 257.417969 226.695312 C 265.304688 226.691406 271.703125 220.304688 271.707031 212.425781 L 270.261719 212.425781 " fill-opacity="1" fill-rule="nonzero"/><path fill="#ffffff" d="M 255.5625 209.425781 C 255.5625 211.632812 253.769531 213.425781 251.554688 213.425781 C 249.34375 213.425781 247.546875 211.632812 247.546875 209.425781 C 247.546875 207.210938 249.34375 205.417969 251.554688 205.417969 C 253.769531 205.417969 255.5625 207.210938 255.5625 209.425781 " fill-opacity="1" fill-rule="nonzero"/><path fill="#26292c" d="M 210.5 257.507812 C 210.5 266.175781 200.421875 273.210938 187.976562 273.210938 C 175.535156 273.210938 165.453125 266.175781 165.453125 257.507812 C 165.453125 248.84375 175.535156 241.816406 187.976562 241.816406 C 200.421875 241.816406 210.5 248.84375 210.5 257.507812 " fill-opacity="1" fill-rule="nonzero"/><path fill="#231f20" d="M 210.5 257.507812 L 209.058594 257.507812 C 209.054688 259.390625 208.515625 261.1875 207.496094 262.871094 C 205.972656 265.386719 203.34375 267.628906 199.953125 269.222656 C 196.566406 270.820312 192.4375 271.765625 187.976562 271.765625 C 182.027344 271.769531 176.667969 270.074219 172.875 267.425781 C 170.976562 266.105469 169.472656 264.546875 168.457031 262.871094 C 167.4375 261.1875 166.898438 259.390625 166.898438 257.507812 C 166.898438 255.621094 167.4375 253.828125 168.457031 252.144531 C 169.984375 249.632812 172.609375 247.394531 176 245.800781 C 179.386719 244.203125 183.515625 243.253906 187.976562 243.257812 C 193.925781 243.253906 199.285156 244.949219 203.078125 247.59375 C 204.972656 248.917969 206.480469 250.46875 207.496094 252.144531 C 208.515625 253.828125 209.054688 255.621094 209.058594 257.507812 L 211.945312 257.507812 C 211.945312 255.058594 211.226562 252.726562 209.96875 250.648438 C 208.070312 247.535156 204.988281 244.976562 201.1875 243.1875 C 197.382812 241.398438 192.847656 240.371094 187.976562 240.367188 C 181.480469 240.371094 175.582031 242.191406 171.222656 245.226562 C 169.042969 246.746094 167.246094 248.570312 165.984375 250.648438 C 164.726562 252.726562 164.003906 255.054688 164.007812 257.507812 C 164.003906 259.953125 164.726562 262.289062 165.984375 264.367188 C 167.878906 267.484375 170.964844 270.039062 174.765625 271.835938 C 178.570312 273.625 183.109375 274.652344 187.976562 274.652344 C 194.472656 274.648438 200.371094 272.832031 204.730469 269.792969 C 206.910156 268.273438 208.703125 266.441406 209.96875 264.367188 C 211.226562 262.289062 211.945312 259.953125 211.945312 257.507812 L 210.5 257.507812 " fill-opacity="1" fill-rule="nonzero"/><path fill="#231f20" d="M 157.3125 299.375 C 157.4375 299.4375 170.371094 306.722656 188.394531 306.730469 C 197.402344 306.734375 207.6875 304.894531 218.183594 299.398438 C 218.894531 299.027344 219.164062 298.15625 218.796875 297.449219 C 218.425781 296.742188 217.554688 296.46875 216.847656 296.839844 C 206.800781 302.097656 197.015625 303.84375 188.394531 303.84375 C 179.777344 303.84375 172.335938 302.089844 167.054688 300.332031 C 164.414062 299.457031 162.316406 298.578125 160.886719 297.925781 C 160.171875 297.601562 159.625 297.328125 159.261719 297.140625 C 159.078125 297.046875 158.941406 296.976562 158.851562 296.925781 L 158.753906 296.875 L 158.730469 296.859375 C 158.035156 296.46875 157.15625 296.71875 156.761719 297.414062 C 156.371094 298.105469 156.617188 298.988281 157.3125 299.378906 " fill-opacity="1" fill-rule="nonzero"/></svg>